<svg width="21" height="21" viewBox="0 0 21 21" fill="none" xmlns="http://www.w3.org/2000/svg">
<circle cx="10.5" cy="10.5" r="10" stroke="#222222"/>
<path fill-rule="evenodd" clip-rule="evenodd" d="M14.3128 9.94974H11.1044V6.74141C11.1044 6.59554 11.0465 6.45564 10.9433 6.3525C10.8402 6.24935 10.7003 6.19141 10.5544 6.19141C10.4086 6.19141 10.2687 6.24935 10.1655 6.3525C10.0624 6.45564 10.0044 6.59554 10.0044 6.74141V9.94974H6.79609C6.65022 9.94974 6.51033 10.0077 6.40719 10.1108C6.30404 10.214 6.24609 10.3539 6.24609 10.4997C6.24609 10.6456 6.30404 10.7855 6.40719 10.8886C6.51033 10.9918 6.65022 11.0497 6.79609 11.0497H10.0044V14.2581C10.0044 14.4039 10.0624 14.5438 10.1655 14.647C10.2687 14.7501 10.4086 14.8081 10.5544 14.8081C10.7003 14.8081 10.8402 14.7501 10.9433 14.647C11.0465 14.5438 11.1044 14.4039 11.1044 14.2581V11.0497H14.3128C14.4586 11.0497 14.5985 10.9918 14.7017 10.8886C14.8048 10.7855 14.8628 10.6456 14.8628 10.4997C14.8628 10.3539 14.8048 10.214 14.7017 10.1108C14.5985 10.0077 14.4586 9.94974 14.3128 9.94974Z" fill="#222222"/>
</svg>
