<svg width="21" height="21" viewBox="0 0 21 21" fill="none" xmlns="http://www.w3.org/2000/svg">
<circle cx="10.5" cy="10.5" r="10.5" fill="#6B94FF"/>
<path fill-rule="evenodd" clip-rule="evenodd" d="M14.3123 9.94974H11.1039V6.74141C11.1039 6.59554 11.046 6.45564 10.9428 6.3525C10.8397 6.24935 10.6998 6.19141 10.5539 6.19141C10.4081 6.19141 10.2682 6.24935 10.165 6.3525C10.0619 6.45564 10.0039 6.59554 10.0039 6.74141V9.94974H6.79561C6.64974 9.94974 6.50984 10.0077 6.4067 10.1108C6.30355 10.214 6.24561 10.3539 6.24561 10.4997C6.24561 10.6456 6.30355 10.7855 6.4067 10.8886C6.50984 10.9918 6.64974 11.0497 6.79561 11.0497H10.0039V14.2581C10.0039 14.4039 10.0619 14.5438 10.165 14.647C10.2682 14.7501 10.4081 14.8081 10.5539 14.8081C10.6998 14.8081 10.8397 14.7501 10.9428 14.647C11.046 14.5438 11.1039 14.4039 11.1039 14.2581V11.0497H14.3123C14.4581 11.0497 14.598 10.9918 14.7012 10.8886C14.8043 10.7855 14.8623 10.6456 14.8623 10.4997C14.8623 10.3539 14.8043 10.214 14.7012 10.1108C14.598 10.0077 14.4581 9.94974 14.3123 9.94974Z" fill="white"/>
</svg>
