<svg width="28" height="28" viewBox="0 0 28 28" fill="none" xmlns="http://www.w3.org/2000/svg">
<rect width="28" height="28" rx="5" fill="#9A7FFF"/>
<path fill-rule="evenodd" clip-rule="evenodd" d="M8.12841 11.6695C7.7076 11.6695 7.30403 11.8367 7.00647 12.1343C6.70891 12.4318 6.54175 12.8354 6.54175 13.2562V19.912C6.54175 20.7887 7.25175 21.4995 8.12841 21.4995H9.73675V11.6695H8.12841ZM21.0109 9.83037H17.2259V6.27954C17.2261 5.96092 17.1211 5.65116 16.9272 5.39833C16.7333 5.1455 16.4614 4.96376 16.1536 4.88131C15.8458 4.79886 15.5195 4.82032 15.2252 4.94235C14.9308 5.06438 14.685 5.28017 14.5259 5.5562L10.9959 11.6695H10.9867V21.4995H18.6817C19.3912 21.4995 20.0803 21.2619 20.6389 20.8244C21.1974 20.387 21.5934 19.775 21.7634 19.0862L23.3218 12.7829C23.4085 12.4322 23.4143 12.0663 23.3387 11.713C23.2631 11.3597 23.1081 11.0283 22.8854 10.7438C22.6628 10.4593 22.3783 10.2292 22.0535 10.071C21.7287 9.91269 21.3722 9.83042 21.0109 9.83037Z" fill="white"/>
</svg>
