<svg width="20" height="20" viewBox="0 0 20 20" fill="none" xmlns="http://www.w3.org/2000/svg">
<circle cx="10" cy="10" r="10" fill="#9A7FFF"/>
<path fill-rule="evenodd" clip-rule="evenodd" d="M6.36516 8.55794C6.10466 8.55794 5.85482 8.66142 5.67062 8.84562C5.48642 9.02983 5.38293 9.27966 5.38293 9.54016V13.6604C5.38293 14.2031 5.82246 14.6432 6.36516 14.6432H7.36079V8.55794H6.36516ZM14.34 7.41941H11.9969V5.22127C11.9971 5.02403 11.9321 4.83227 11.812 4.67576C11.692 4.51925 11.5237 4.40674 11.3331 4.3557C11.1426 4.30466 10.9406 4.31794 10.7584 4.39349C10.5762 4.46903 10.424 4.60261 10.3255 4.77349L8.14028 8.55794H8.1346V14.6432H12.8982C13.3374 14.6432 13.7639 14.496 14.1097 14.2252C14.4555 13.9544 14.7006 13.5756 14.8059 13.1492L15.7706 9.24714C15.8243 9.03004 15.8278 8.80356 15.781 8.58486C15.7342 8.36616 15.6383 8.16098 15.5005 7.98486C15.3626 7.80875 15.1865 7.66631 14.9854 7.56834C14.7844 7.47037 14.5637 7.41944 14.34 7.41941Z" fill="white"/>
</svg>
