<svg width="21" height="21" viewBox="0 0 21 21" fill="none" xmlns="http://www.w3.org/2000/svg">
<path fill-rule="evenodd" clip-rule="evenodd" d="M6.5625 10.1914C6.9934 10.1914 7.42008 10.1065 7.81818 9.94164C8.21628 9.77674 8.578 9.53504 8.88269 9.23035C9.18739 8.92566 9.42908 8.56394 9.59398 8.16584C9.75888 7.76774 9.84375 7.34106 9.84375 6.91016C9.84375 6.47926 9.75888 6.05258 9.59398 5.65448C9.42908 5.25638 9.18739 4.89465 8.88269 4.58996C8.578 4.28527 8.21628 4.04357 7.81818 3.87868C7.42008 3.71378 6.9934 3.62891 6.5625 3.62891C5.69226 3.62891 4.85766 3.97461 4.24231 4.58996C3.62695 5.20532 3.28125 6.03991 3.28125 6.91016C3.28125 7.7804 3.62695 8.615 4.24231 9.23035C4.85766 9.84571 5.69226 10.1914 6.5625 10.1914ZM7 15.5998C7 14.4938 7.67462 12.8567 9.17 11.6168C8.43237 11.3569 7.5705 11.1942 6.5625 11.1942C2.1525 11.1942 0.4375 14.2024 0.4375 15.5998C0.4375 16.9998 4.08888 17.3708 6.5625 17.3708C6.97463 17.3708 7.42 17.3594 7.87588 17.3358C7.2975 16.8747 7 16.2972 7 15.5998Z" fill="#6B94FF" fill-opacity="0.72"/>
<path fill-rule="evenodd" clip-rule="evenodd" d="M14.4375 11.195C10.0275 11.195 8.3125 14.2024 8.3125 15.6007C8.3125 16.9989 11.9639 17.3717 14.4375 17.3717C16.9111 17.3717 20.5625 16.9989 20.5625 15.6007C20.5625 14.2024 18.8475 11.195 14.4375 11.195ZM14.4375 10.1914C14.8684 10.1914 15.2951 10.1065 15.6932 9.94164C16.0913 9.77674 16.453 9.53504 16.7577 9.23035C17.0624 8.92566 17.3041 8.56394 17.469 8.16584C17.6339 7.76774 17.7188 7.34106 17.7188 6.91016C17.7188 6.47926 17.6339 6.05258 17.469 5.65448C17.3041 5.25638 17.0624 4.89465 16.7577 4.58996C16.453 4.28527 16.0913 4.04357 15.6932 3.87868C15.2951 3.71378 14.8684 3.62891 14.4375 3.62891C13.5673 3.62891 12.7327 3.97461 12.1173 4.58996C11.502 5.20532 11.1562 6.03991 11.1562 6.91016C11.1562 7.7804 11.502 8.615 12.1173 9.23035C12.7327 9.8457 13.5673 10.1914 14.4375 10.1914Z" fill="#6B94FF"/>
</svg>
