<svg width="29" height="36" viewBox="0 0 29 36" fill="none" xmlns="http://www.w3.org/2000/svg">
<g clip-path="url(#clip0_1766_563)">
<path d="M8.23589 10.1211L10.2992 1.43061C10.4974 0.601251 11.3681 0.00292969 12.3767 0.00292969C13.5482 0.00292969 14.4967 0.796742 14.4967 1.77716V20.3992C14.4967 21.8505 14.072 23.2812 13.2615 24.5637L11.3645 27.5613H4.95508L8.23589 10.1211Z" fill="white"/>
<path d="M9.39648 19.6914L11.3112 9.84873C11.4386 9.19709 12.1075 8.72021 12.8967 8.72021C13.7851 8.72021 14.5035 9.3215 14.5035 10.065V18.9509" fill="white"/>
<path d="M20.7647 10.1211L18.7014 1.43061C18.5032 0.601251 17.6325 0.00292969 16.6239 0.00292969C15.4524 0.00292969 14.5039 0.796742 14.5039 1.77716V20.3992C14.5039 21.8505 14.9286 23.2812 15.7391 24.5637L17.6361 27.5613H24.0491L20.7682 10.1211H20.7647Z" fill="white"/>
<path d="M19.607 19.6914L17.6923 9.84873C17.5649 9.19709 16.896 8.72021 16.1068 8.72021C15.2185 8.72021 14.5 9.3215 14.5 10.065V18.9509" fill="white"/>
<path d="M3.48609 26.326C6.89785 25.5737 10.0831 25.5944 13.0525 26.326L10.2636 35.9999H0L3.48609 26.326Z" fill="#C7F0FF"/>
<path d="M25.5137 26.326C22.5797 25.5085 19.3449 25.6595 15.9473 26.326L18.7361 35.9998H28.9997L25.5137 26.326Z" fill="#C7F0FF"/>
</g>
<defs>
<clipPath id="clip0_1766_563">
<rect width="29" height="36" fill="white"/>
</clipPath>
</defs>
</svg>
