<svg width="23" height="23" viewBox="0 0 23 23" fill="none" xmlns="http://www.w3.org/2000/svg">
<path fill-rule="evenodd" clip-rule="evenodd" d="M16.1834 6.36732C16.1835 6.98336 16.0622 7.59337 15.8265 8.16254C15.5908 8.73171 15.2453 9.24888 14.8098 9.68453C14.3742 10.1202 13.8571 10.4658 13.288 10.7016C12.7189 10.9374 12.1089 11.0588 11.4928 11.0588C10.2487 11.059 9.05546 10.5649 8.17563 9.68521C7.2958 8.80555 6.80144 7.61242 6.80131 6.36828C6.80125 5.75224 6.92253 5.14223 7.15822 4.57306C7.3939 4.00389 7.73939 3.48672 8.17495 3.05107C9.0546 2.17124 10.2477 1.67688 11.4919 1.67676C12.736 1.67663 13.9293 2.17074 14.8091 3.05039C15.6889 3.93004 16.1833 5.12318 16.1834 6.36732M11.4924 12.4939C4.73706 12.4939 2.10931 16.793 2.10931 18.7931C2.10931 20.7922 7.70311 21.325 11.4924 21.325C15.2816 21.325 20.8754 20.7922 20.8754 18.7931C20.8754 16.793 18.2476 12.4939 11.4924 12.4939Z" fill="#707070"/>
</svg>
