<svg width="40" height="40" viewBox="0 0 40 40" fill="none" xmlns="http://www.w3.org/2000/svg">
<path fill-rule="evenodd" clip-rule="evenodd" d="M18.1734 35.8782C19.2834 36.6115 20.7151 36.6115 21.8234 35.8782C25.3484 33.5515 33.0234 27.9898 36.3301 21.7665C40.6884 13.5565 35.5701 5.36816 28.8034 5.36816C24.9467 5.36816 22.6267 7.38316 21.3434 9.11483C21.1893 9.32692 20.9871 9.49952 20.7535 9.61854C20.5199 9.73755 20.2614 9.79959 19.9992 9.79959C19.7371 9.79959 19.4786 9.73755 19.245 9.61854C19.0114 9.49952 18.8092 9.32692 18.6551 9.11483C17.3717 7.38316 15.0517 5.36816 11.1951 5.36816C4.42841 5.36816 -0.689918 13.5565 3.67008 21.7665C6.97341 27.9898 14.6517 33.5515 18.1734 35.8782Z" fill="white"/>
</svg>
