<svg width="38" height="38" viewBox="0 0 38 38" fill="none" xmlns="http://www.w3.org/2000/svg">
<path fill-rule="evenodd" clip-rule="evenodd" d="M7.84377 14.5728C7.04423 14.5728 6.27744 14.8904 5.71208 15.4558C5.14672 16.0211 4.8291 16.7879 4.8291 17.5875V30.2336C4.8291 31.8992 6.1781 33.2498 7.84377 33.2498H10.8996V14.5728H7.84377ZM32.3205 11.0784H25.129V4.3318C25.1294 3.72643 24.9299 3.13788 24.5615 2.65751C24.1931 2.17714 23.6764 1.83183 23.0916 1.67517C22.5069 1.51852 21.8868 1.55928 21.3276 1.79115C20.7684 2.02301 20.3014 2.433 19.999 2.95747L13.292 14.5728H13.2746V33.2498H27.8951C29.2431 33.2498 30.5523 32.7982 31.6136 31.9671C32.6749 31.1359 33.4272 29.9732 33.7503 28.6645L36.7111 16.6881C36.8759 16.0218 36.8869 15.3267 36.7433 14.6554C36.5997 13.9842 36.3052 13.3545 35.8821 12.8139C35.459 12.2734 34.9185 11.8362 34.3014 11.5355C33.6844 11.2348 33.0069 11.0785 32.3205 11.0784Z" fill="white"/>
</svg>
