<svg width="20" height="20" viewBox="0 0 20 20" fill="none" xmlns="http://www.w3.org/2000/svg">
<circle cx="10" cy="10" r="10" fill="#FF888C"/>
<path fill-rule="evenodd" clip-rule="evenodd" d="M9.43794 14.8848C9.77947 15.1104 10.22 15.1104 10.561 14.8848C11.6456 14.1689 14.0072 12.4576 15.0246 10.5427C16.3656 8.01656 14.7908 5.49707 12.7087 5.49707C11.522 5.49707 10.8082 6.11707 10.4133 6.64989C10.3659 6.71515 10.3037 6.76826 10.2318 6.80488C10.1599 6.8415 10.0804 6.86059 9.99973 6.86059C9.91906 6.86059 9.83953 6.8415 9.76765 6.80488C9.69577 6.76826 9.63357 6.71515 9.58614 6.64989C9.19127 6.11707 8.47742 5.49707 7.29076 5.49707C5.20871 5.49707 3.63383 8.01656 4.97537 10.5427C5.99178 12.4576 8.35435 14.1689 9.43794 14.8848Z" fill="white"/>
</svg>
