<svg width="28" height="28" viewBox="0 0 28 28" fill="none" xmlns="http://www.w3.org/2000/svg">
<rect width="28" height="28" rx="5" fill="#FF878C"/>
<path fill-rule="evenodd" clip-rule="evenodd" d="M13.0867 21.9396C13.6417 22.3062 14.3575 22.3062 14.9117 21.9396C16.6742 20.7762 20.5117 17.9954 22.165 14.8837C24.3442 10.7787 21.785 6.68457 18.4017 6.68457C16.4734 6.68457 15.3134 7.69207 14.6717 8.5579C14.5946 8.66395 14.4936 8.75025 14.3768 8.80976C14.2599 8.86926 14.1307 8.90028 13.9996 8.90028C13.8685 8.90028 13.7393 8.86926 13.6225 8.80976C13.5057 8.75025 13.4046 8.66395 13.3275 8.5579C12.6859 7.69207 11.5259 6.68457 9.59754 6.68457C6.21421 6.68457 3.65504 10.7787 5.83504 14.8837C7.48671 17.9954 11.3259 20.7762 13.0867 21.9396" fill="white"/>
</svg>
