<svg width="303" height="469" viewBox="0 0 303 469" fill="none" xmlns="http://www.w3.org/2000/svg">
<g filter="url(#filter0_d_1608_462)">
<path d="M10 15C10 6.71573 16.7157 0 25 0H278C286.284 0 293 6.71573 293 15V92H10V15Z" fill="url(#paint0_linear_1608_462)" fill-opacity="0.6"/>
<path d="M10 92H293V434C293 442.284 286.284 449 278 449H25C16.7157 449 10 442.284 10 434V92Z" fill="white" fill-opacity="0.9"/>
</g>
<path d="M43.0527 48H36.168V26.7891H43.2578C49.498 26.7891 53.248 30.7734 53.248 37.3652C53.248 43.9863 49.498 48 43.0527 48ZM39.3906 45.1875H42.877C47.6816 45.1875 50.0547 42.375 50.0547 37.3652C50.0547 32.3848 47.6816 29.6016 43.0527 29.6016H39.3906V45.1875ZM54.3848 43.5176C54.3848 39.8848 57.4609 38.9473 60.332 38.7422C61.3867 38.6689 63.7744 38.5371 64.5215 38.5078L64.4922 37.248C64.4922 35.4609 63.4082 34.4062 61.2695 34.4062C59.4238 34.4062 58.3105 35.2559 57.9883 36.4277H54.8828C55.1758 33.791 57.6367 31.8867 61.3867 31.8867C63.9062 31.8867 67.627 32.8242 67.627 37.4238V48H64.5801V45.832H64.4629C63.8477 47.0332 62.3828 48.3516 59.7461 48.3516C56.7285 48.3516 54.3848 46.623 54.3848 43.5176ZM57.4316 43.5469C57.4316 45.0703 58.6914 45.8613 60.4492 45.8613C62.998 45.8613 64.5215 44.1621 64.5215 42.2578V40.793L60.7715 41.0566C58.7207 41.2031 57.4316 41.9648 57.4316 43.5469ZM71.2539 53.9766C70.6094 53.9766 69.9941 53.9473 69.584 53.8887V51.2812C69.9355 51.3105 70.5508 51.3398 70.9902 51.3398C71.957 51.3398 72.7773 51.252 73.5098 49.2598L73.8906 48.2051L68.0605 32.0918H71.4004L75.4141 44.4258H75.5898L79.6035 32.0918H82.9727L76.4102 50.1094C75.502 52.6289 73.8613 53.9766 71.2539 53.9766ZM89.8164 48V45.6562L97.1699 38.2441C99.4844 35.8125 100.656 34.4648 100.656 32.6191C100.656 30.5391 98.957 29.1914 96.7305 29.1914C94.3867 29.1914 92.8633 30.6855 92.8633 32.9414H89.8164C89.7871 29.0742 92.7461 26.4961 96.7891 26.4961C100.891 26.4961 103.703 29.0742 103.732 32.5312C103.703 34.9043 102.59 36.7793 98.6055 40.7051L94.2988 45.0703V45.2461H104.084V48H89.8164Z" fill="white"/>
<path d="M37.9102 68.1074C36.3281 68.1074 35.3711 66.9746 35.3711 65.373C35.3711 63.752 36.3574 62.6289 37.9102 62.6289C39.1992 62.6289 40.0977 63.3809 40.1855 64.5234H38.9941C38.8965 64.0156 38.5254 63.625 37.9199 63.625C37.1484 63.625 36.6309 64.2793 36.6309 65.3438C36.6309 66.4375 37.1387 67.0918 37.9199 67.0918C38.4766 67.0918 38.8867 66.7695 38.9941 66.1934H40.1855C40.0879 67.3164 39.2383 68.1074 37.9102 68.1074ZM40.823 68V62.6973H42.034V63.5762H42.0926C42.2781 62.9707 42.7957 62.6191 43.4012 62.6191C43.5379 62.6191 43.7332 62.6289 43.8504 62.6484V63.8008C43.743 63.7617 43.4793 63.7227 43.2742 63.7227C42.5809 63.7227 42.073 64.2012 42.073 64.875V68H40.823ZM46.4703 68.1074C44.8687 68.1074 43.8922 67.043 43.8922 65.3828C43.8922 63.7422 44.8883 62.6289 46.402 62.6289C47.7008 62.6289 48.8238 63.4395 48.8238 65.3047V65.6953H45.1227C45.1373 66.5986 45.6695 67.1309 46.4801 67.1309C47.027 67.1309 47.398 66.8965 47.5543 66.584H48.775C48.5504 67.502 47.7008 68.1074 46.4703 68.1074ZM45.1324 64.8457H47.6324C47.6227 64.123 47.1441 63.5957 46.4215 63.5957C45.6695 63.5957 45.1715 64.167 45.1324 64.8457ZM49.2465 66.5059C49.2465 65.3145 50.2328 64.9629 51.2191 64.9043C51.5854 64.8799 52.3471 64.8359 52.5766 64.8262V64.4062C52.5766 63.8789 52.2348 63.5762 51.6195 63.5762C51.0629 63.5762 50.7211 63.8301 50.6234 64.2109H49.4223C49.5102 63.3125 50.3207 62.6289 51.6488 62.6289C52.6547 62.6289 53.8168 63.0391 53.8168 64.4551V68H52.6254V67.2676H52.5863C52.352 67.7168 51.8539 68.1074 51.0238 68.1074C50.0082 68.1074 49.2465 67.5508 49.2465 66.5059ZM50.4477 66.4961C50.4477 66.9551 50.8188 67.1895 51.3461 67.1895C52.098 67.1895 52.5863 66.6914 52.5863 66.0957V65.6562L51.4145 65.7344C50.8188 65.7832 50.4477 66.0273 50.4477 66.4961ZM57.3352 62.6973V63.6543H56.2902V66.4082C56.2902 66.916 56.5441 67.0234 56.8566 67.0234C57.0031 67.0234 57.2473 67.0137 57.4035 67.0039V68.0195C57.257 68.0488 57.0129 68.0684 56.7004 68.0684C55.7629 68.0684 55.0402 67.6094 55.05 66.6133V63.6543H54.2883V62.6973H55.05V61.4277H56.2902V62.6973H57.3352ZM60.2871 68.1074C58.6855 68.1074 57.709 67.043 57.709 65.3828C57.709 63.7422 58.7051 62.6289 60.2188 62.6289C61.5176 62.6289 62.6406 63.4395 62.6406 65.3047V65.6953H58.9395C58.9541 66.5986 59.4863 67.1309 60.2969 67.1309C60.8438 67.1309 61.2148 66.8965 61.3711 66.584H62.5918C62.3672 67.502 61.5176 68.1074 60.2871 68.1074ZM58.9492 64.8457H61.4492C61.4395 64.123 60.9609 63.5957 60.2383 63.5957C59.4863 63.5957 58.9883 64.167 58.9492 64.8457ZM65.2801 68.0977C64.0301 68.0977 63.0926 67.1016 63.0926 65.3535C63.0926 63.5859 64.0594 62.6289 65.2898 62.6289C66.2273 62.6289 66.618 63.1855 66.8035 63.5664H66.8523V60.9297H68.0926V68H66.8719V67.1602H66.8035C66.6082 67.5508 66.198 68.0977 65.2801 68.0977ZM65.6219 67.0723C66.4227 67.0723 66.8816 66.3789 66.8816 65.3438C66.8816 64.3184 66.4324 63.6445 65.6219 63.6445C64.7918 63.6445 64.3621 64.3574 64.3621 65.3438C64.3621 66.3496 64.8016 67.0723 65.6219 67.0723ZM70.8812 66.5059C70.8812 65.3145 71.8676 64.9629 72.8539 64.9043C73.2201 64.8799 73.9818 64.8359 74.2113 64.8262V64.4062C74.2113 63.8789 73.8695 63.5762 73.2543 63.5762C72.6977 63.5762 72.3559 63.8301 72.2582 64.2109H71.057C71.1449 63.3125 71.9555 62.6289 73.2836 62.6289C74.2895 62.6289 75.4516 63.0391 75.4516 64.4551V68H74.2602V67.2676H74.2211C73.9867 67.7168 73.4887 68.1074 72.6586 68.1074C71.643 68.1074 70.8812 67.5508 70.8812 66.5059ZM72.0824 66.4961C72.0824 66.9551 72.4535 67.1895 72.9809 67.1895C73.7328 67.1895 74.2211 66.6914 74.2211 66.0957V65.6562L73.0492 65.7344C72.4535 65.7832 72.0824 66.0273 72.0824 66.4961ZM78.9699 62.6973V63.6543H77.925V66.4082C77.925 66.916 78.1789 67.0234 78.4914 67.0234C78.6379 67.0234 78.882 67.0137 79.0383 67.0039V68.0195C78.8918 68.0488 78.6477 68.0684 78.3352 68.0684C77.3977 68.0684 76.675 67.6094 76.6848 66.6133V63.6543H75.923V62.6973H76.6848V61.4277H77.925V62.6973H78.9699ZM82.4715 68.0781C82.0516 68.0781 81.7098 67.7363 81.7098 67.3164C81.7098 66.9062 82.0516 66.5645 82.4715 66.5645C82.8719 66.5645 83.2234 66.9062 83.2234 67.3164C83.2234 67.7363 82.8719 68.0781 82.4715 68.0781ZM82.4715 64.2891C82.0516 64.2891 81.7098 63.9473 81.7098 63.5273C81.7098 63.1172 82.0516 62.7754 82.4715 62.7754C82.8719 62.7754 83.2234 63.1172 83.2234 63.5273C83.2234 63.9473 82.8719 64.2891 82.4715 64.2891ZM86.1879 68V67.082L88.6879 64.6699C89.4008 63.957 89.7719 63.5371 89.7719 62.9414C89.7719 62.2871 89.2543 61.8672 88.5609 61.8672C87.8285 61.8672 87.3598 62.3262 87.3695 63.0391H86.1586C86.1488 61.7012 87.1547 60.832 88.5707 60.832C90.016 60.832 90.9926 61.6914 90.9926 62.8828C90.9926 63.6836 90.602 64.3281 89.2152 65.6367L87.9555 66.8867V66.9355H91.1V68H86.1879ZM94.5207 68.0977C92.8215 68.0977 91.8059 66.7793 91.8059 64.4648C91.8059 62.1602 92.8215 60.832 94.5207 60.832C96.2102 60.832 97.2355 62.1602 97.2355 64.4648C97.2355 66.7793 96.2199 68.0977 94.5207 68.0977ZM94.5207 67.0332C95.4094 67.0332 95.9562 66.1641 95.9562 64.4648C95.9562 62.7754 95.3996 61.8867 94.5207 61.8867C93.6418 61.8867 93.0852 62.7754 93.0852 64.4648C93.0852 66.1641 93.632 67.0332 94.5207 67.0332ZM98 68V67.082L100.5 64.6699C101.213 63.957 101.584 63.5371 101.584 62.9414C101.584 62.2871 101.066 61.8672 100.373 61.8672C99.6406 61.8672 99.1719 62.3262 99.1816 63.0391H97.9707C97.9609 61.7012 98.9668 60.832 100.383 60.832C101.828 60.832 102.805 61.6914 102.805 62.8828C102.805 63.6836 102.414 64.3281 101.027 65.6367L99.7676 66.8867V66.9355H102.912V68H98ZM103.442 66.6816V65.666L106.499 60.9297H108.081V65.6367H109.009V66.6816H108.081V68H106.87V66.6816H103.442ZM104.741 65.6367H106.889V62.375H106.811L104.741 65.5879V65.6367ZM110.3 68.0781C109.88 68.0781 109.539 67.7363 109.539 67.3164C109.539 66.9062 109.88 66.5645 110.3 66.5645C110.701 66.5645 111.052 66.9062 111.052 67.3164C111.052 67.7363 110.701 68.0781 110.3 68.0781ZM114.268 68.0977C112.569 68.0977 111.553 66.7793 111.553 64.4648C111.553 62.1602 112.569 60.832 114.268 60.832C115.957 60.832 116.983 62.1602 116.983 64.4648C116.983 66.7793 115.967 68.0977 114.268 68.0977ZM114.268 67.0332C115.157 67.0332 115.704 66.1641 115.704 64.4648C115.704 62.7754 115.147 61.8867 114.268 61.8867C113.389 61.8867 112.832 62.7754 112.832 64.4648C112.832 66.1641 113.379 67.0332 114.268 67.0332ZM117.816 68L120.882 62.043V61.9941H117.327V60.9297H122.2V62.0137L119.134 68H117.816ZM122.486 68.0781C122.066 68.0781 121.725 67.7363 121.725 67.3164C121.725 66.9062 122.066 66.5645 122.486 66.5645C122.887 66.5645 123.238 66.9062 123.238 67.3164C123.238 67.7363 122.887 68.0781 122.486 68.0781ZM124.13 68V67.082L126.63 64.6699C127.343 63.957 127.714 63.5371 127.714 62.9414C127.714 62.2871 127.196 61.8672 126.503 61.8672C125.77 61.8672 125.302 62.3262 125.311 63.0391H124.1C124.091 61.7012 125.096 60.832 126.512 60.832C127.958 60.832 128.934 61.6914 128.934 62.8828C128.934 63.6836 128.544 64.3281 127.157 65.6367L125.897 66.8867V66.9355H129.042V68H124.13ZM132.423 68.0977C130.91 68.0977 129.836 67.2773 129.806 66.0859H131.086C131.125 66.6523 131.691 67.0234 132.423 67.0234C133.205 67.0234 133.761 66.5938 133.761 65.9688C133.761 65.334 133.214 64.875 132.296 64.875H131.662V63.8984H132.296C133.048 63.8984 133.576 63.4785 133.566 62.8633C133.576 62.2676 133.127 61.8672 132.433 61.8672C131.769 61.8672 131.193 62.2383 131.173 62.834H129.953C129.982 61.6426 131.056 60.832 132.443 60.832C133.879 60.832 134.806 61.7109 134.796 62.7949C134.806 63.5859 134.279 64.1621 133.507 64.3184V64.377C134.504 64.5137 135.07 65.1484 135.06 66.0371C135.07 67.2285 133.957 68.0977 132.423 68.0977Z" fill="white"/>
<path d="M53.5625 139.328H52.1406V132.031H50.4062V138.641H49V125.594H50.4062V130.812H52.1406V125.328H53.5625V139.328ZM41.9844 126.906H47.4219V135.641H41.9844V126.906ZM46.0312 134.453V128.078H43.3906V134.453H46.0312ZM61.6844 126.297C61.6844 126.87 61.9083 127.427 62.3562 127.969C62.8042 128.51 63.4031 128.974 64.1531 129.359C64.9031 129.745 65.7156 130 66.5906 130.125L66.0125 131.297C64.8875 131.109 63.8693 130.742 62.9578 130.195C62.0516 129.648 61.3771 128.987 60.9344 128.211C60.6427 128.737 60.2391 129.214 59.7234 129.641C59.213 130.062 58.6245 130.419 57.9578 130.711C57.2911 130.997 56.5854 131.203 55.8406 131.328L55.2781 130.156C56.1583 130.021 56.9708 129.763 57.7156 129.383C58.4656 128.997 59.062 128.534 59.5047 127.992C59.9474 127.451 60.1687 126.885 60.1687 126.297V125.688H61.6844V126.297ZM54.5281 132.375H67.3406V133.578H61.7781V136.281H60.3094V133.578H54.5281V132.375ZM56.1219 134.969H57.6062V137.828H65.9187V139.031H56.1219V134.969ZM78.5719 129.469H80.6031V130.703H78.5719V135.5H77.0719V125.328H78.5719V129.469ZM67.5562 132.781C68.6448 132.453 69.5901 132.034 70.3922 131.523C71.1995 131.008 71.8375 130.422 72.3062 129.766C72.7802 129.104 73.0641 128.391 73.1578 127.625H68.15V126.391H74.775C74.775 127.599 74.512 128.701 73.9859 129.695C73.4599 130.685 72.7021 131.542 71.7125 132.266C70.7281 132.984 69.551 133.552 68.1812 133.969L67.5562 132.781ZM69.6812 134.453H71.1812V137.828H79.15V139.031H69.6812V134.453ZM95.3469 139.328H93.8469V125.328H95.3469V139.328ZM83.8469 135.578C85.6802 134.703 87.0734 133.638 88.0266 132.383C88.9797 131.128 89.5292 129.672 89.675 128.016H84.5187V126.828H91.175C91.175 128.995 90.6568 130.919 89.6203 132.602C88.5891 134.284 86.925 135.677 84.6281 136.781L83.8469 135.578ZM108.078 132.969H103.844V136.391H109.547V137.609H96.7344V136.391H102.375V132.969H98.3281V126.406H107.953V127.609H99.8125V131.781H108.078V132.969ZM120.669 131H122.919V132.234H120.669V139.328H119.2V125.328H120.669V131ZM109.684 127.516H113.137V125.516H114.622V127.516H117.981V128.734H109.684V127.516ZM110.403 133.016C110.403 132.391 110.552 131.831 110.848 131.336C111.151 130.841 111.565 130.456 112.091 130.18C112.622 129.904 113.221 129.766 113.887 129.766C114.549 129.766 115.143 129.904 115.669 130.18C116.2 130.456 116.617 130.841 116.919 131.336C117.221 131.831 117.372 132.391 117.372 133.016C117.372 133.646 117.221 134.208 116.919 134.703C116.617 135.198 116.2 135.586 115.669 135.867C115.143 136.143 114.549 136.281 113.887 136.281C113.221 136.281 112.622 136.143 112.091 135.867C111.565 135.586 111.151 135.198 110.848 134.703C110.552 134.208 110.403 133.646 110.403 133.016ZM111.825 133.016C111.825 133.417 111.911 133.771 112.083 134.078C112.26 134.385 112.505 134.622 112.817 134.789C113.135 134.956 113.492 135.036 113.887 135.031C114.278 135.036 114.63 134.956 114.942 134.789C115.255 134.622 115.499 134.385 115.677 134.078C115.859 133.771 115.95 133.417 115.95 133.016C115.95 132.625 115.859 132.276 115.677 131.969C115.499 131.661 115.255 131.422 114.942 131.25C114.63 131.073 114.278 130.984 113.887 130.984C113.492 130.984 113.135 131.073 112.817 131.25C112.505 131.422 112.26 131.661 112.083 131.969C111.911 132.276 111.825 132.625 111.825 133.016ZM129.838 128.625H132.994V125.328H134.463V139.359H132.994V133.672H129.838V135.828H123.338V126.672H129.838V128.625ZM128.384 134.641V127.828H124.806V134.641H128.384ZM132.994 132.469V129.844H129.838V132.469H132.994ZM146.066 126.141C146.066 126.688 146.287 127.219 146.73 127.734C147.178 128.25 147.777 128.688 148.527 129.047C149.282 129.406 150.097 129.641 150.972 129.75L150.425 130.922C149.68 130.812 148.974 130.622 148.308 130.352C147.641 130.081 147.05 129.742 146.534 129.336C146.019 128.93 145.613 128.477 145.316 127.977C144.873 128.732 144.196 129.37 143.284 129.891C142.373 130.411 141.347 130.755 140.206 130.922L139.628 129.75C140.514 129.641 141.331 129.409 142.081 129.055C142.836 128.695 143.435 128.26 143.878 127.75C144.326 127.234 144.55 126.698 144.55 126.141V125.562H146.066V126.141ZM138.925 131.938H151.691V133.125H138.925V131.938ZM140.441 136.812C140.441 136.276 140.633 135.823 141.019 135.453C141.404 135.078 141.959 134.794 142.683 134.602C143.412 134.409 144.284 134.312 145.3 134.312C146.305 134.312 147.167 134.409 147.886 134.602C148.61 134.794 149.165 135.078 149.55 135.453C149.935 135.828 150.128 136.281 150.128 136.812C150.128 137.344 149.935 137.797 149.55 138.172C149.165 138.547 148.61 138.833 147.886 139.031C147.162 139.229 146.3 139.328 145.3 139.328C144.284 139.328 143.412 139.229 142.683 139.031C141.959 138.833 141.404 138.547 141.019 138.172C140.633 137.797 140.441 137.344 140.441 136.812ZM141.941 136.812C141.935 137.25 142.224 137.586 142.808 137.82C143.396 138.055 144.227 138.167 145.3 138.156C146.363 138.167 147.185 138.055 147.769 137.82C148.352 137.586 148.644 137.25 148.644 136.812C148.644 136.375 148.352 136.039 147.769 135.805C147.185 135.57 146.363 135.453 145.3 135.453C144.227 135.453 143.396 135.57 142.808 135.805C142.224 136.039 141.935 136.375 141.941 136.812ZM163.578 139.359H162.094V125.328H163.578V139.359ZM152.734 126.594H159.297V131.703H154.266V134.766C155.479 134.76 156.602 134.721 157.633 134.648C158.669 134.576 159.745 134.448 160.859 134.266L161 135.484C159.839 135.677 158.711 135.81 157.617 135.883C156.523 135.956 155.297 135.995 153.938 136H152.75V130.516H157.781V127.797H152.734V126.594ZM175.887 131H178.137V132.234H175.887V139.328H174.419V125.328H175.887V131ZM164.903 127.516H168.356V125.516H169.841V127.516H173.2V128.734H164.903V127.516ZM165.622 133.016C165.622 132.391 165.77 131.831 166.067 131.336C166.369 130.841 166.783 130.456 167.309 130.18C167.841 129.904 168.44 129.766 169.106 129.766C169.768 129.766 170.361 129.904 170.887 130.18C171.419 130.456 171.835 130.841 172.137 131.336C172.44 131.831 172.591 132.391 172.591 133.016C172.591 133.646 172.44 134.208 172.137 134.703C171.835 135.198 171.419 135.586 170.887 135.867C170.361 136.143 169.768 136.281 169.106 136.281C168.44 136.281 167.841 136.143 167.309 135.867C166.783 135.586 166.369 135.198 166.067 134.703C165.77 134.208 165.622 133.646 165.622 133.016ZM167.044 133.016C167.044 133.417 167.13 133.771 167.302 134.078C167.479 134.385 167.723 134.622 168.036 134.789C168.354 134.956 168.71 135.036 169.106 135.031C169.497 135.036 169.848 134.956 170.161 134.789C170.473 134.622 170.718 134.385 170.895 134.078C171.078 133.771 171.169 133.417 171.169 133.016C171.169 132.625 171.078 132.276 170.895 131.969C170.718 131.661 170.473 131.422 170.161 131.25C169.848 131.073 169.497 130.984 169.106 130.984C168.71 130.984 168.354 131.073 168.036 131.25C167.723 131.422 167.479 131.661 167.302 131.969C167.13 132.276 167.044 132.625 167.044 133.016ZM189.337 130.609H179.697V125.828H181.166V129.422H189.337V130.609ZM177.994 132.375H190.806V133.562H177.994V132.375ZM179.587 134.891H181.072V137.781H189.431V139H179.587V134.891ZM198.988 126.938C198.988 127.562 199.12 128.154 199.386 128.711C199.657 129.263 200.05 129.747 200.566 130.164C201.081 130.581 201.696 130.901 202.409 131.125L201.597 132.281C200.831 132.021 200.165 131.641 199.597 131.141C199.034 130.635 198.599 130.039 198.292 129.352C197.985 130.138 197.529 130.823 196.925 131.406C196.321 131.984 195.602 132.422 194.769 132.719L194.003 131.531C194.727 131.292 195.352 130.943 195.878 130.484C196.409 130.026 196.813 129.495 197.089 128.891C197.37 128.286 197.514 127.646 197.519 126.969V125.875H198.988V126.938ZM195.316 133.453H199.831V136.766H196.784V138.078C197.545 138.073 198.162 138.055 198.636 138.023C199.11 137.992 199.597 137.927 200.097 137.828L200.238 138.953C199.644 139.068 199.068 139.141 198.511 139.172C197.954 139.203 197.154 139.219 196.113 139.219H195.347V135.688H198.394V134.562H195.316V133.453ZM200.644 133.453H205.144V139.219H200.644V133.453ZM203.847 138.125V134.562H201.956V138.125H203.847ZM203.659 125.328H205.144V128.312H207.175V129.531H205.144V132.781H203.659V125.328ZM213.547 125.562C214.599 125.562 215.497 125.654 216.242 125.836C216.987 126.018 217.557 126.292 217.953 126.656C218.349 127.016 218.547 127.453 218.547 127.969C218.547 128.49 218.349 128.932 217.953 129.297C217.557 129.656 216.987 129.93 216.242 130.117C215.497 130.299 214.599 130.391 213.547 130.391C212.495 130.391 211.594 130.299 210.844 130.117C210.099 129.93 209.529 129.656 209.133 129.297C208.742 128.932 208.547 128.49 208.547 127.969C208.547 127.453 208.742 127.016 209.133 126.656C209.529 126.292 210.099 126.018 210.844 125.836C211.594 125.654 212.495 125.562 213.547 125.562ZM207.172 131.25H219.938V132.438H207.172V131.25ZM208.703 133.516H218.328V136.797H210.172V138.047H218.719V139.188H208.719V135.719H216.859V134.625H208.703V133.516ZM210.094 127.969C210.089 128.401 210.383 128.729 210.977 128.953C211.57 129.172 212.427 129.281 213.547 129.281C214.677 129.281 215.539 129.172 216.133 128.953C216.727 128.729 217.021 128.401 217.016 127.969C217.021 127.552 216.721 127.229 216.117 127C215.518 126.771 214.661 126.656 213.547 126.656C212.438 126.656 211.583 126.771 210.984 127C210.385 127.229 210.089 127.552 210.094 127.969ZM228.15 126.844C228.15 127.453 228.285 128.031 228.556 128.578C228.827 129.12 229.218 129.596 229.728 130.008C230.244 130.419 230.848 130.729 231.541 130.938L230.775 132.094C229.999 131.839 229.327 131.464 228.759 130.969C228.192 130.469 227.754 129.88 227.447 129.203C227.14 129.979 226.684 130.651 226.08 131.219C225.481 131.786 224.765 132.214 223.931 132.5L223.197 131.312C223.916 131.078 224.535 130.74 225.056 130.297C225.582 129.849 225.983 129.331 226.259 128.742C226.541 128.148 226.681 127.516 226.681 126.844V125.812H228.15V126.844ZM225.259 133.203H234.306V136.672H226.744V138H234.791V139.188H225.291V135.578H232.837V134.375H225.259V133.203ZM232.822 125.328H234.306V128.281H236.337V129.516H234.306V132.609H232.822V125.328ZM247.678 132.969H243.444V136.391H249.147V137.609H236.334V136.391H241.975V132.969H237.928V126.406H247.553V127.609H239.413V131.781H247.678V132.969ZM262.159 134.172H249.347V132.969H255.019V131.641H250.988V128.078H259.066V126.828H250.956V125.656H260.55V129.172H252.456V130.484H260.831V131.641H256.488V132.969H262.159V134.172ZM250.784 135.156H260.628V139.219H259.128V136.344H250.784V135.156ZM52.4219 157H54.6719V158.234H52.4219V165.328H50.9531V151.328H52.4219V157ZM41.4375 153.516H44.8906V151.516H46.375V153.516H49.7344V154.734H41.4375V153.516ZM42.1562 159.016C42.1562 158.391 42.3047 157.831 42.6016 157.336C42.9036 156.841 43.3177 156.456 43.8438 156.18C44.375 155.904 44.974 155.766 45.6406 155.766C46.3021 155.766 46.8958 155.904 47.4219 156.18C47.9531 156.456 48.3698 156.841 48.6719 157.336C48.974 157.831 49.125 158.391 49.125 159.016C49.125 159.646 48.974 160.208 48.6719 160.703C48.3698 161.198 47.9531 161.586 47.4219 161.867C46.8958 162.143 46.3021 162.281 45.6406 162.281C44.974 162.281 44.375 162.143 43.8438 161.867C43.3177 161.586 42.9036 161.198 42.6016 160.703C42.3047 160.208 42.1562 159.646 42.1562 159.016ZM43.5781 159.016C43.5781 159.417 43.6641 159.771 43.8359 160.078C44.013 160.385 44.2578 160.622 44.5703 160.789C44.888 160.956 45.2448 161.036 45.6406 161.031C46.0312 161.036 46.3828 160.956 46.6953 160.789C47.0078 160.622 47.2526 160.385 47.4297 160.078C47.612 159.771 47.7031 159.417 47.7031 159.016C47.7031 158.625 47.612 158.276 47.4297 157.969C47.2526 157.661 47.0078 157.422 46.6953 157.25C46.3828 157.073 46.0312 156.984 45.6406 156.984C45.2448 156.984 44.888 157.073 44.5703 157.25C44.2578 157.422 44.013 157.661 43.8359 157.969C43.6641 158.276 43.5781 158.625 43.5781 159.016ZM67.6219 158.047H65.45V165.312H63.9656V151.328H65.45V156.828H67.6219V158.047ZM55.075 152.688H56.5437V160.562C58.6844 160.552 60.7573 160.344 62.7625 159.938L62.9344 161.188C61.799 161.411 60.6818 161.57 59.5828 161.664C58.4839 161.758 57.3667 161.802 56.2312 161.797H55.075V152.688ZM79.1656 159.234H77.6969V151.328H79.1656V159.234ZM68.4312 152.141H69.9156V157.047C71.1031 157.036 72.2021 156.984 73.2125 156.891C74.2281 156.797 75.2437 156.641 76.2594 156.422L76.4625 157.656C75.3427 157.885 74.2359 158.049 73.1422 158.148C72.0484 158.242 70.8635 158.292 69.5875 158.297H68.4312V152.141ZM69.9937 159.875H79.1656V165.141H69.9937V159.875ZM77.7125 163.953V161.047H71.4469V163.953H77.7125ZM85.1625 152.328C85.8917 152.328 86.5453 152.469 87.1234 152.75C87.7016 153.026 88.1547 153.419 88.4828 153.93C88.8109 154.435 88.975 155.01 88.975 155.656C88.975 156.302 88.8109 156.88 88.4828 157.391C88.1547 157.896 87.7016 158.292 87.1234 158.578C86.5453 158.859 85.8917 159 85.1625 159C84.4333 159 83.7771 158.859 83.1937 158.578C82.6156 158.292 82.1625 157.896 81.8344 157.391C81.5115 156.88 81.35 156.302 81.35 155.656C81.35 155.01 81.5115 154.435 81.8344 153.93C82.1625 153.424 82.6156 153.031 83.1937 152.75C83.7771 152.469 84.4333 152.328 85.1625 152.328ZM80.6781 161.109C82.4385 161.109 84.0635 161.081 85.5531 161.023C87.0427 160.966 88.4646 160.839 89.8187 160.641L89.9281 161.719C88.5323 161.99 87.113 162.161 85.6703 162.234C84.2328 162.307 82.6312 162.344 80.8656 162.344L80.6781 161.109ZM82.8187 155.656C82.8135 156.062 82.9099 156.422 83.1078 156.734C83.3109 157.042 83.5896 157.281 83.9437 157.453C84.3031 157.62 84.7094 157.703 85.1625 157.703C85.6156 157.703 86.0193 157.62 86.3734 157.453C86.7328 157.281 87.0141 157.042 87.2172 156.734C87.4203 156.422 87.5219 156.062 87.5219 155.656C87.5219 155.255 87.4203 154.901 87.2172 154.594C87.0141 154.281 86.7328 154.039 86.3734 153.867C86.0141 153.695 85.6104 153.609 85.1625 153.609C84.7094 153.609 84.3031 153.695 83.9437 153.867C83.5896 154.039 83.3109 154.281 83.1078 154.594C82.9099 154.901 82.8135 155.255 82.8187 155.656ZM90.6937 151.328H92.1781V165.359H90.6937V151.328ZM103.812 161.812H97.2656V152.719H103.812V161.812ZM102.344 160.609V153.891H98.7188V160.609H102.344ZM106.156 151.328H107.641V156.812H109.891V158.062H107.641V165.328H106.156V151.328ZM116.137 151.625C117.158 151.625 118.044 151.732 118.794 151.945C119.544 152.154 120.122 152.461 120.528 152.867C120.934 153.273 121.137 153.755 121.137 154.312C121.137 154.859 120.934 155.333 120.528 155.734C120.122 156.13 119.544 156.432 118.794 156.641C118.044 156.849 117.158 156.953 116.137 156.953C115.122 156.953 114.236 156.849 113.481 156.641C112.731 156.432 112.153 156.13 111.747 155.734C111.341 155.333 111.137 154.859 111.137 154.312C111.137 153.755 111.341 153.273 111.747 152.867C112.153 152.461 112.731 152.154 113.481 151.945C114.236 151.732 115.122 151.625 116.137 151.625ZM109.762 158.031H122.528V159.234H109.762V158.031ZM111.294 160.484H120.966V165.156H111.294V160.484ZM112.669 154.312C112.669 154.62 112.807 154.885 113.083 155.109C113.359 155.328 113.757 155.497 114.278 155.617C114.799 155.737 115.419 155.797 116.137 155.797C116.851 155.797 117.468 155.737 117.989 155.617C118.51 155.497 118.908 155.328 119.184 155.109C119.466 154.885 119.606 154.62 119.606 154.312C119.606 153.995 119.468 153.724 119.192 153.5C118.916 153.271 118.52 153.096 118.005 152.977C117.494 152.857 116.887 152.797 116.184 152.797C115.085 152.797 114.223 152.93 113.598 153.195C112.973 153.456 112.664 153.828 112.669 154.312ZM119.528 163.953V161.672H112.762V163.953H119.528ZM129.166 151.562C130.218 151.562 131.116 151.654 131.861 151.836C132.606 152.018 133.176 152.292 133.572 152.656C133.968 153.016 134.166 153.453 134.166 153.969C134.166 154.49 133.968 154.932 133.572 155.297C133.176 155.656 132.606 155.93 131.861 156.117C131.116 156.299 130.218 156.391 129.166 156.391C128.114 156.391 127.213 156.299 126.463 156.117C125.718 155.93 125.147 155.656 124.752 155.297C124.361 154.932 124.166 154.49 124.166 153.969C124.166 153.453 124.361 153.016 124.752 152.656C125.147 152.292 125.718 152.018 126.463 151.836C127.213 151.654 128.114 151.562 129.166 151.562ZM122.791 157.25H135.556V158.438H122.791V157.25ZM124.322 159.516H133.947V162.797H125.791V164.047H134.338V165.188H124.338V161.719H132.478V160.625H124.322V159.516ZM125.713 153.969C125.707 154.401 126.002 154.729 126.595 154.953C127.189 155.172 128.046 155.281 129.166 155.281C130.296 155.281 131.158 155.172 131.752 154.953C132.345 154.729 132.64 154.401 132.634 153.969C132.64 153.552 132.34 153.229 131.736 153C131.137 152.771 130.28 152.656 129.166 152.656C128.056 152.656 127.202 152.771 126.603 153C126.004 153.229 125.707 153.552 125.713 153.969ZM151.175 165.312H149.738V158.094H148.206V164.656H146.816V151.609H148.206V156.875H149.738V151.312H151.175V165.312ZM138.878 161.219C139.644 160.229 140.196 159.164 140.534 158.023C140.878 156.878 141.079 155.609 141.136 154.219H139.238V153.016H142.409C142.409 154.786 142.24 156.406 141.902 157.875C141.568 159.344 140.951 160.693 140.05 161.922L138.878 161.219ZM142.175 162.172C142.743 161.422 143.188 160.612 143.511 159.742C143.834 158.872 144.06 157.992 144.191 157.102C144.321 156.206 144.399 155.245 144.425 154.219H142.863V153.016H145.722C145.722 154.266 145.667 155.435 145.558 156.523C145.448 157.612 145.222 158.708 144.878 159.812C144.534 160.911 144.034 161.922 143.378 162.844L142.175 162.172ZM162.953 154.562H164.984V155.781H162.953V159.188H161.469V151.328H162.953V154.562ZM152.578 152.219H158.797V153.438H154.047V157.234C155.474 157.229 156.62 157.195 157.484 157.133C158.354 157.07 159.214 156.948 160.062 156.766L160.234 157.984C159.312 158.172 158.375 158.299 157.422 158.367C156.474 158.435 155.229 158.469 153.688 158.469H152.578V152.219ZM154.047 159.938H163.078V161.141H155.531V163.953H163.328V165.156H154.047V159.938ZM176.309 154.047C176.304 154.854 176.291 155.544 176.27 156.117C176.255 156.685 176.208 157.349 176.13 158.109C176.057 158.87 175.94 159.693 175.778 160.578L174.278 160.422C174.445 159.583 174.567 158.794 174.645 158.055C174.723 157.31 174.77 156.654 174.786 156.086C174.807 155.518 174.82 154.839 174.825 154.047V153.875H166.325V152.672H176.309V154.047ZM164.981 162.203H169.841V157.266H171.309V162.203H177.747V163.438H164.981V162.203ZM192.756 158.562H191.256V151.328H192.756V158.562ZM181.35 156.953C181.694 156.953 182.261 156.948 183.053 156.938V153.422H181.725V152.25H189.334V153.422H187.991V156.734C188.694 156.688 189.355 156.625 189.975 156.547L190.038 157.625C188.793 157.812 187.457 157.945 186.03 158.023C184.603 158.102 183.186 158.141 181.78 158.141H181.522L181.35 156.953ZM183.459 159.203H192.756V162.672H184.959V164H193.241V165.188H183.506V161.594H191.288V160.375H183.459V159.203ZM184.475 156.906C185.418 156.875 186.116 156.846 186.569 156.82V153.422H184.475V156.906ZM206.956 163.578H194.144V162.344H197.206V158.688C196.618 158.365 196.162 157.956 195.839 157.461C195.516 156.966 195.357 156.411 195.363 155.797C195.363 155.073 195.581 154.435 196.019 153.883C196.456 153.331 197.066 152.904 197.847 152.602C198.633 152.294 199.524 152.141 200.519 152.141C201.514 152.141 202.404 152.294 203.191 152.602C203.977 152.904 204.589 153.331 205.027 153.883C205.469 154.435 205.691 155.073 205.691 155.797C205.691 156.406 205.534 156.956 205.222 157.445C204.909 157.93 204.467 158.333 203.894 158.656V162.344H206.956V163.578ZM196.8 155.797C196.8 156.292 196.956 156.727 197.269 157.102C197.581 157.477 198.019 157.768 198.581 157.977C199.144 158.18 199.79 158.281 200.519 158.281C201.243 158.281 201.886 158.177 202.448 157.969C203.016 157.76 203.459 157.471 203.777 157.102C204.094 156.727 204.253 156.292 204.253 155.797C204.253 155.302 204.094 154.87 203.777 154.5C203.459 154.125 203.016 153.836 202.448 153.633C201.886 153.43 201.243 153.328 200.519 153.328C199.79 153.328 199.144 153.43 198.581 153.633C198.019 153.836 197.581 154.125 197.269 154.5C196.956 154.87 196.8 155.302 196.8 155.797ZM202.394 162.344V159.234C201.81 159.37 201.185 159.438 200.519 159.438C199.863 159.438 199.248 159.37 198.675 159.234V162.344H202.394ZM219.969 158.891H207.156V157.75H219.969V158.891ZM208.672 159.875H218.391V162.953H210.172V164.109H218.828V165.156H208.688V161.969H216.922V160.938H208.672V159.875ZM208.766 151.688H218.359V154.719H210.266V155.781H218.594V156.828H208.797V153.734H216.875V152.734H208.766V151.688ZM227.494 155.609C227.494 156.349 227.606 157.073 227.83 157.781C228.059 158.49 228.397 159.13 228.845 159.703C229.293 160.276 229.832 160.729 230.462 161.062L229.619 162.172C228.957 161.823 228.387 161.333 227.908 160.703C227.434 160.073 227.067 159.352 226.806 158.539C226.551 159.414 226.186 160.193 225.712 160.875C225.244 161.557 224.681 162.089 224.025 162.469L223.15 161.375C223.775 161.01 224.309 160.523 224.752 159.914C225.194 159.299 225.528 158.62 225.752 157.875C225.981 157.13 226.098 156.375 226.103 155.609V155.094H223.509V153.859H226.103V151.828H227.494V153.859H230.041V155.094H227.494V155.609ZM230.9 151.594H232.306V156.891H233.978V151.328H235.4V165.328H233.978V158.141H232.306V164.641H230.9V151.594ZM249.131 160.516H243.413V165.328H241.959V160.516H236.319V159.281H249.131V160.516ZM237.709 154.969C237.709 154.344 237.918 153.797 238.334 153.328C238.756 152.854 239.342 152.492 240.092 152.242C240.842 151.987 241.709 151.859 242.694 151.859C243.678 151.859 244.545 151.987 245.295 152.242C246.051 152.492 246.636 152.854 247.053 153.328C247.47 153.797 247.678 154.344 247.678 154.969C247.678 155.589 247.47 156.13 247.053 156.594C246.636 157.057 246.051 157.417 245.295 157.672C244.545 157.922 243.678 158.047 242.694 158.047C241.715 158.047 240.847 157.922 240.092 157.672C239.342 157.417 238.756 157.057 238.334 156.594C237.918 156.13 237.709 155.589 237.709 154.969ZM239.241 154.969C239.241 155.354 239.381 155.69 239.663 155.977C239.949 156.258 240.353 156.477 240.873 156.633C241.399 156.784 242.006 156.859 242.694 156.859C243.386 156.859 243.993 156.784 244.514 156.633C245.035 156.477 245.439 156.258 245.725 155.977C246.017 155.69 246.163 155.354 246.163 154.969C246.163 154.578 246.017 154.24 245.725 153.953C245.439 153.667 245.035 153.445 244.514 153.289C243.993 153.128 243.386 153.047 242.694 153.047C242.006 153.047 241.399 153.128 240.873 153.289C240.353 153.445 239.949 153.667 239.663 153.953C239.381 154.24 239.241 154.578 239.241 154.969ZM256.409 154.625H259.566V151.328H261.034V165.359H259.566V159.672H256.409V161.828H249.909V152.672H256.409V154.625ZM254.956 160.641V153.828H251.378V160.641H254.956ZM259.566 158.469V155.844H256.409V158.469H259.566ZM45.375 178.141C45.9531 178.141 46.4844 178.242 46.9688 178.445C47.4583 178.643 47.8698 178.927 48.2031 179.297H51.7031V177.328H53.1875V185.594H51.7031V183.703H48.1953C47.862 184.068 47.4505 184.349 46.9609 184.547C46.4766 184.745 45.9479 184.844 45.375 184.844C44.6823 184.844 44.0573 184.701 43.5 184.414C42.9427 184.128 42.5052 183.732 42.1875 183.227C41.875 182.716 41.7188 182.141 41.7188 181.5C41.7188 180.854 41.875 180.276 42.1875 179.766C42.5052 179.255 42.9427 178.857 43.5 178.57C44.0573 178.284 44.6823 178.141 45.375 178.141ZM43.1406 181.5C43.1406 181.901 43.2344 182.26 43.4219 182.578C43.6146 182.896 43.8828 183.143 44.2266 183.32C44.5703 183.497 44.9583 183.583 45.3906 183.578C45.8125 183.583 46.1901 183.497 46.5234 183.32C46.862 183.143 47.1276 182.896 47.3203 182.578C47.513 182.26 47.6094 181.901 47.6094 181.5C47.6094 181.089 47.513 180.724 47.3203 180.406C47.1276 180.089 46.862 179.844 46.5234 179.672C46.1901 179.5 45.8125 179.417 45.3906 179.422C44.9583 179.417 44.5703 179.5 44.2266 179.672C43.8828 179.844 43.6146 180.089 43.4219 180.406C43.2344 180.724 43.1406 181.089 43.1406 181.5ZM43.7656 188.609C43.7656 188.047 43.9557 187.562 44.3359 187.156C44.7161 186.745 45.2604 186.435 45.9688 186.227C46.6823 186.013 47.526 185.906 48.5 185.906C49.4688 185.906 50.3073 186.013 51.0156 186.227C51.7292 186.435 52.276 186.745 52.6562 187.156C53.0417 187.562 53.2344 188.047 53.2344 188.609C53.2344 189.172 53.0417 189.654 52.6562 190.055C52.276 190.461 51.7292 190.768 51.0156 190.977C50.3073 191.19 49.4688 191.297 48.5 191.297C47.526 191.297 46.6823 191.19 45.9688 190.977C45.2604 190.768 44.7161 190.461 44.3359 190.055C43.9557 189.654 43.7656 189.172 43.7656 188.609ZM45.2188 188.609C45.2188 188.927 45.3464 189.201 45.6016 189.43C45.862 189.654 46.2344 189.826 46.7188 189.945C47.2083 190.065 47.7891 190.125 48.4609 190.125C49.5078 190.125 50.3229 189.995 50.9062 189.734C51.4896 189.469 51.7812 189.094 51.7812 188.609C51.7812 188.115 51.4922 187.732 50.9141 187.461C50.3411 187.19 49.5365 187.052 48.5 187.047C47.4635 187.052 46.6562 187.19 46.0781 187.461C45.5 187.732 45.2135 188.115 45.2188 188.609ZM48.8828 180.484C48.9818 180.812 49.0312 181.151 49.0312 181.5C49.0312 181.833 48.9818 182.161 48.8828 182.484H51.7031V180.484H48.8828ZM67.3094 186.703H54.5437V185.531H60.1844V184.516C58.9448 184.458 57.9891 184.25 57.3172 183.891C56.6505 183.526 56.3198 183.026 56.325 182.391C56.3198 181.698 56.7156 181.172 57.5125 180.812C58.3094 180.448 59.4448 180.266 60.9187 180.266C62.3875 180.266 63.5203 180.448 64.3172 180.812C65.1193 181.177 65.5177 181.703 65.5125 182.391C65.5177 183.021 65.187 183.518 64.5203 183.883C63.8536 184.247 62.9031 184.458 61.6687 184.516V185.531H67.3094V186.703ZM55.2 178.578H60.1844V177.188H61.6687V178.578H66.5906V179.719H55.2V178.578ZM56.1531 187.531H57.6531V189.844H65.8719V191.031H56.1531V187.531ZM57.825 182.391C57.8198 182.74 58.0776 183.005 58.5984 183.188C59.1245 183.365 59.8979 183.453 60.9187 183.453C61.9344 183.453 62.7026 183.365 63.2234 183.188C63.7495 183.005 64.0125 182.74 64.0125 182.391C64.0125 182.042 63.7495 181.779 63.2234 181.602C62.7026 181.419 61.9344 181.328 60.9187 181.328C59.8979 181.328 59.1245 181.419 58.5984 181.602C58.0776 181.779 57.8198 182.042 57.825 182.391ZM73.9469 177.562C74.999 177.562 75.8974 177.654 76.6422 177.836C77.387 178.018 77.9573 178.292 78.3531 178.656C78.749 179.016 78.9469 179.453 78.9469 179.969C78.9469 180.49 78.749 180.932 78.3531 181.297C77.9573 181.656 77.387 181.93 76.6422 182.117C75.8974 182.299 74.999 182.391 73.9469 182.391C72.8948 182.391 71.9937 182.299 71.2437 182.117C70.499 181.93 69.9286 181.656 69.5328 181.297C69.1422 180.932 68.9469 180.49 68.9469 179.969C68.9469 179.453 69.1422 179.016 69.5328 178.656C69.9286 178.292 70.499 178.018 71.2437 177.836C71.9937 177.654 72.8948 177.562 73.9469 177.562ZM67.5719 183.25H80.3375V184.438H67.5719V183.25ZM69.1031 185.516H78.7281V188.797H70.5719V190.047H79.1187V191.188H69.1187V187.719H77.2594V186.625H69.1031V185.516ZM70.4937 179.969C70.4885 180.401 70.7828 180.729 71.3766 180.953C71.9703 181.172 72.8271 181.281 73.9469 181.281C75.0771 181.281 75.9391 181.172 76.5328 180.953C77.1266 180.729 77.4208 180.401 77.4156 179.969C77.4208 179.552 77.1214 179.229 76.5172 179C75.9182 178.771 75.0615 178.656 73.9469 178.656C72.8375 178.656 71.9833 178.771 71.3844 179C70.7854 179.229 70.4885 179.552 70.4937 179.969ZM87.9719 181.156C87.9719 181.917 88.0786 182.669 88.2922 183.414C88.5057 184.154 88.8234 184.831 89.2453 185.445C89.6672 186.06 90.1802 186.552 90.7844 186.922L89.9562 188.062C89.3208 187.682 88.7766 187.164 88.3234 186.508C87.8755 185.846 87.5266 185.096 87.2766 184.258C87.0161 185.169 86.6437 185.982 86.1594 186.695C85.6802 187.409 85.1073 187.969 84.4406 188.375L83.5187 187.266C84.1594 186.88 84.7062 186.367 85.1594 185.727C85.6177 185.086 85.9615 184.378 86.1906 183.602C86.425 182.82 86.5396 182.026 86.5344 181.219V178.609H87.9719V181.156ZM89.2687 182.25H91.4406V177.594H92.8469V190.641H91.4406V183.484H89.2687V182.25ZM94.3312 177.328H95.7531V191.328H94.3312V177.328ZM109.531 186.516H103.812V191.328H102.359V186.516H96.7188V185.281H109.531V186.516ZM98.1094 180.969C98.1094 180.344 98.3177 179.797 98.7344 179.328C99.1562 178.854 99.7422 178.492 100.492 178.242C101.242 177.987 102.109 177.859 103.094 177.859C104.078 177.859 104.945 177.987 105.695 178.242C106.451 178.492 107.036 178.854 107.453 179.328C107.87 179.797 108.078 180.344 108.078 180.969C108.078 181.589 107.87 182.13 107.453 182.594C107.036 183.057 106.451 183.417 105.695 183.672C104.945 183.922 104.078 184.047 103.094 184.047C102.115 184.047 101.247 183.922 100.492 183.672C99.7422 183.417 99.1562 183.057 98.7344 182.594C98.3177 182.13 98.1094 181.589 98.1094 180.969ZM99.6406 180.969C99.6406 181.354 99.7812 181.69 100.062 181.977C100.349 182.258 100.753 182.477 101.273 182.633C101.799 182.784 102.406 182.859 103.094 182.859C103.786 182.859 104.393 182.784 104.914 182.633C105.435 182.477 105.839 182.258 106.125 181.977C106.417 181.69 106.562 181.354 106.562 180.969C106.562 180.578 106.417 180.24 106.125 179.953C105.839 179.667 105.435 179.445 104.914 179.289C104.393 179.128 103.786 179.047 103.094 179.047C102.406 179.047 101.799 179.128 101.273 179.289C100.753 179.445 100.349 179.667 100.062 179.953C99.7812 180.24 99.6406 180.578 99.6406 180.969ZM121.091 182.609H111.45V177.828H112.919V181.422H121.091V182.609ZM109.747 184.375H122.559V185.562H109.747V184.375ZM111.341 186.891H112.825V189.781H121.184V191H111.341V186.891ZM137.537 191.328H136.037V177.328H137.537V191.328ZM126.037 187.578C127.871 186.703 129.264 185.638 130.217 184.383C131.17 183.128 131.72 181.672 131.866 180.016H126.709V178.828H133.366C133.366 180.995 132.847 182.919 131.811 184.602C130.78 186.284 129.116 187.677 126.819 188.781L126.037 187.578ZM150.269 184.969H146.034V188.391H151.738V189.609H138.925V188.391H144.566V184.969H140.519V178.406H150.144V179.609H142.003V183.781H150.269V184.969ZM162.859 183H165.109V184.234H162.859V191.328H161.391V177.328H162.859V183ZM151.875 179.516H155.328V177.516H156.812V179.516H160.172V180.734H151.875V179.516ZM152.594 185.016C152.594 184.391 152.742 183.831 153.039 183.336C153.341 182.841 153.755 182.456 154.281 182.18C154.812 181.904 155.411 181.766 156.078 181.766C156.74 181.766 157.333 181.904 157.859 182.18C158.391 182.456 158.807 182.841 159.109 183.336C159.411 183.831 159.562 184.391 159.562 185.016C159.562 185.646 159.411 186.208 159.109 186.703C158.807 187.198 158.391 187.586 157.859 187.867C157.333 188.143 156.74 188.281 156.078 188.281C155.411 188.281 154.812 188.143 154.281 187.867C153.755 187.586 153.341 187.198 153.039 186.703C152.742 186.208 152.594 185.646 152.594 185.016ZM154.016 185.016C154.016 185.417 154.102 185.771 154.273 186.078C154.451 186.385 154.695 186.622 155.008 186.789C155.326 186.956 155.682 187.036 156.078 187.031C156.469 187.036 156.82 186.956 157.133 186.789C157.445 186.622 157.69 186.385 157.867 186.078C158.049 185.771 158.141 185.417 158.141 185.016C158.141 184.625 158.049 184.276 157.867 183.969C157.69 183.661 157.445 183.422 157.133 183.25C156.82 183.073 156.469 182.984 156.078 182.984C155.682 182.984 155.326 183.073 155.008 183.25C154.695 183.422 154.451 183.661 154.273 183.969C154.102 184.276 154.016 184.625 154.016 185.016ZM177.012 191.328H175.606V177.328H177.012V191.328ZM164.934 187.281C166.393 186.417 167.499 185.404 168.255 184.242C169.01 183.076 169.453 181.755 169.583 180.281H165.591V179.062H171.059C171.049 180.5 170.841 181.797 170.434 182.953H172.653V177.688H174.059V190.641H172.653V184.141H169.919C169.054 185.833 167.674 187.234 165.778 188.344L164.934 187.281ZM192.022 183H194.272V184.234H192.022V191.328H190.553V177.328H192.022V183ZM181.038 179.516H184.491V177.516H185.975V179.516H189.334V180.734H181.038V179.516ZM181.756 185.016C181.756 184.391 181.905 183.831 182.202 183.336C182.504 182.841 182.918 182.456 183.444 182.18C183.975 181.904 184.574 181.766 185.241 181.766C185.902 181.766 186.496 181.904 187.022 182.18C187.553 182.456 187.97 182.841 188.272 183.336C188.574 183.831 188.725 184.391 188.725 185.016C188.725 185.646 188.574 186.208 188.272 186.703C187.97 187.198 187.553 187.586 187.022 187.867C186.496 188.143 185.902 188.281 185.241 188.281C184.574 188.281 183.975 188.143 183.444 187.867C182.918 187.586 182.504 187.198 182.202 186.703C181.905 186.208 181.756 185.646 181.756 185.016ZM183.178 185.016C183.178 185.417 183.264 185.771 183.436 186.078C183.613 186.385 183.858 186.622 184.17 186.789C184.488 186.956 184.845 187.036 185.241 187.031C185.631 187.036 185.983 186.956 186.295 186.789C186.608 186.622 186.853 186.385 187.03 186.078C187.212 185.771 187.303 185.417 187.303 185.016C187.303 184.625 187.212 184.276 187.03 183.969C186.853 183.661 186.608 183.422 186.295 183.25C185.983 183.073 185.631 182.984 185.241 182.984C184.845 182.984 184.488 183.073 184.17 183.25C183.858 183.422 183.613 183.661 183.436 183.969C183.264 184.276 183.178 184.625 183.178 185.016ZM206.956 189.547H194.144V188.328H199.753V185H201.222V188.328H206.956V189.547ZM194.581 184.031C195.472 183.88 196.308 183.568 197.089 183.094C197.876 182.62 198.506 182.047 198.98 181.375C199.454 180.698 199.691 180 199.691 179.281V178.219H201.253V179.281C201.253 180 201.49 180.698 201.964 181.375C202.443 182.047 203.076 182.62 203.863 183.094C204.654 183.568 205.498 183.88 206.394 184.031L205.753 185.25C204.993 185.099 204.266 184.849 203.573 184.5C202.886 184.151 202.274 183.719 201.738 183.203C201.201 182.682 200.782 182.109 200.48 181.484C200.178 182.109 199.758 182.68 199.222 183.195C198.691 183.711 198.081 184.146 197.394 184.5C196.711 184.849 195.993 185.099 195.238 185.25L194.581 184.031ZM212.219 180.891C212.219 181.74 212.367 182.573 212.664 183.391C212.966 184.203 213.388 184.924 213.93 185.555C214.471 186.185 215.094 186.656 215.797 186.969L214.891 188.156C214.109 187.76 213.424 187.19 212.836 186.445C212.247 185.695 211.797 184.836 211.484 183.867C211.172 184.893 210.716 185.807 210.117 186.609C209.523 187.406 208.828 188.01 208.031 188.422L207.094 187.219C207.802 186.88 208.43 186.38 208.977 185.719C209.529 185.052 209.956 184.297 210.258 183.453C210.565 182.604 210.719 181.75 210.719 180.891V178.5H212.219V180.891ZM214.25 181.984H217.375V177.328H218.844V191.359H217.375V183.188H214.25V181.984Z" fill="#4A4A4A"/>
<defs>
<filter id="filter0_d_1608_462" x="0" y="0" width="303" height="469" filterUnits="userSpaceOnUse" color-interpolation-filters="sRGB">
<feFlood flood-opacity="0" result="BackgroundImageFix"/>
<feColorMatrix in="SourceAlpha" type="matrix" values="0 0 0 0 0 0 0 0 0 0 0 0 0 0 0 0 0 0 127 0" result="hardAlpha"/>
<feOffset dy="10"/>
<feGaussianBlur stdDeviation="5"/>
<feComposite in2="hardAlpha" operator="out"/>
<feColorMatrix type="matrix" values="0 0 0 0 0.756164 0 0 0 0 0.775233 0 0 0 0 0.965918 0 0 0 0.25 0"/>
<feBlend mode="normal" in2="BackgroundImageFix" result="effect1_dropShadow_1608_462"/>
<feBlend mode="normal" in="SourceGraphic" in2="effect1_dropShadow_1608_462" result="shape"/>
</filter>
<linearGradient id="paint0_linear_1608_462" x1="293" y1="46" x2="10" y2="46" gradientUnits="userSpaceOnUse">
<stop stop-color="#FFC6B2"/>
<stop offset="0.535" stop-color="#B185FF"/>
<stop offset="1" stop-color="#3A92FF"/>
</linearGradient>
</defs>
</svg>
