<svg width="28" height="28" viewBox="0 0 28 28" fill="none" xmlns="http://www.w3.org/2000/svg">
<rect width="28" height="28" rx="5" fill="#6DCAEC"/>
<g clip-path="url(#clip0_1690_5299)">
<path d="M10.1118 9.34111L11.3925 4.75447C11.5155 4.31676 12.0559 4.00098 12.682 4.00098C13.4091 4.00098 13.9978 4.41993 13.9978 4.93738V14.7657C13.9978 15.5317 13.7342 16.2867 13.2312 16.9636L12.0537 18.5457H8.07544L10.1118 9.34111Z" fill="white"/>
<path d="M10.8323 14.3929L12.0207 9.19815C12.0998 8.85423 12.515 8.60254 13.0048 8.60254C13.5562 8.60254 14.0022 8.91988 14.0022 9.31226V14.0021" fill="white"/>
<path d="M17.8882 9.34111L16.6075 4.75447C16.4845 4.31676 15.9441 4.00098 15.318 4.00098C14.5909 4.00098 14.0022 4.41993 14.0022 4.93738V14.7657C14.0022 15.5317 14.2658 16.2867 14.7689 16.9636L15.9463 18.5457H19.9268L17.8904 9.34111H17.8882Z" fill="white"/>
<path d="M17.1699 14.3929L15.9814 9.19815C15.9024 8.85423 15.4872 8.60254 14.9973 8.60254C14.4459 8.60254 14 8.91988 14 9.31226V14.0021" fill="white"/>
<path d="M7.16378 17.8943C9.28143 17.4972 11.2585 17.5082 13.1015 17.8943L11.3705 22.9999H5L7.16378 17.8943Z" fill="#C7F0FF"/>
<path d="M20.8362 17.8941C19.0151 17.4626 17.0073 17.5423 14.8984 17.8941L16.6295 22.9997H23L20.8362 17.8941Z" fill="#C7F0FF"/>
</g>
<defs>
<clipPath id="clip0_1690_5299">
<rect width="18" height="19" fill="white" transform="translate(5 4)"/>
</clipPath>
</defs>
</svg>
