<svg width="20" height="20" viewBox="0 0 20 20" fill="none" xmlns="http://www.w3.org/2000/svg">
<circle cx="10" cy="10" r="10" fill="#6DCAEC"/>
<g clip-path="url(#clip0_1526_3580)">
<path d="M7.73682 6.60586L8.4822 3.38717C8.5538 3.08 8.86831 2.8584 9.23269 2.8584C9.65588 2.8584 9.99852 3.1524 9.99852 3.51552V10.4126C9.99852 10.9501 9.8451 11.48 9.55232 11.955L8.86703 13.0652H6.55164L7.73682 6.60586Z" fill="white"/>
<path d="M8.15619 10.1503L8.84787 6.50488C8.89389 6.26354 9.13553 6.08691 9.42064 6.08691C9.74155 6.08691 10.0011 6.30961 10.0011 6.58497V9.87606" fill="white"/>
<path d="M12.2628 6.60586L11.5174 3.38717C11.4458 3.08 11.1313 2.8584 10.7669 2.8584C10.3437 2.8584 10.0011 3.1524 10.0011 3.51552V10.4126C10.0011 10.9501 10.1545 11.48 10.4473 11.955L11.1326 13.0652H13.4493L12.2641 6.60586H12.2628Z" fill="white"/>
<path d="M11.8447 10.1503L11.153 6.50488C11.107 6.26354 10.8654 6.08691 10.5803 6.08691C10.2594 6.08691 9.99982 6.30961 9.99982 6.58497V9.87606" fill="white"/>
<path d="M6.02106 12.6075C7.25355 12.3288 8.40422 12.3365 9.4769 12.6075L8.46943 16.1904H4.76172L6.02106 12.6075Z" fill="#C7F0FF"/>
<path d="M13.9785 12.608C12.9187 12.3052 11.7501 12.3612 10.5227 12.608L11.5302 16.1909H15.2379L13.9785 12.608Z" fill="#C7F0FF"/>
</g>
<defs>
<clipPath id="clip0_1526_3580">
<rect width="10.4762" height="13.3333" fill="white" transform="translate(4.76172 2.85742)"/>
</clipPath>
</defs>
</svg>
